<?xml version="1.0" encoding="utf-8"?>
<svg id="master-artboard" viewBox="0 0 215.0171661376953 83.72428131103516" version="1.1" xmlns="http://www.w3.org/2000/svg" x="0px" y="0px" style="enable-background:new 0 0 1400 980;" width="215.0171661376953px" height="83.72428131103516px"><defs><style id="ee-google-fonts">@import url(https://fonts.googleapis.com/css?family=Lato:100,300,700,900,100italic,300italic,400,400italic,700italic,900italic);</style></defs><rect id="ee-background" x="0" y="0" width="215.0171661376953" height="83.72428131103516" style="fill: white; fill-opacity: 0; pointer-events: none;"/><g transform="matrix(2.1152734756469727, 0, 0, 0.7731695175170898, -120.80366802215576, -35.27378845214844)"><g id="Layer_2_4_" transform="matrix(1, 0, 0, 1, 0, 0)">
	<g id="Layer_1-2_4_">
		<path class="st0" d="M58,49h100v100H58V49z" style="fill: rgb(44, 177, 188); fill-opacity: 1;"/>
	</g>
</g></g><path d="M 619.1588134765625 415.1700439453125 L 623.038818359375 415.1700439453125 C 623.4721069335938 415.1700439453125 623.8221435546875 415.280029296875 624.0888061523438 415.5000305175781 C 624.35546875 415.71337890625 624.5554809570312 415.9866943359375 624.6887817382812 416.3200378417969 L 634.8087768554688 441.60003662109375 C 635.0421142578125 442.16668701171875 635.2554931640625 442.7833557128906 635.4487915039062 443.4500427246094 C 635.6421508789062 444.11669921875 635.8287963867188 444.80670166015625 636.0087890625 445.52001953125 C 636.162109375 444.80670166015625 636.325439453125 444.11669921875 636.498779296875 443.4500427246094 C 636.672119140625 442.7833557128906 636.87548828125 442.16668701171875 637.1088256835938 441.60003662109375 L 647.1887817382812 416.3200378417969 C 647.3021240234375 416.0400390625 647.5021362304688 415.780029296875 647.788818359375 415.5400390625 C 648.0687866210938 415.2933654785156 648.4188232421875 415.1700439453125 648.8388061523438 415.1700439453125 L 652.7288208007812 415.1700439453125 L 638.1387939453125 451.0000305175781 L 633.7587890625 451.0000305175781 L 619.1588134765625 415.1700439453125 ZM 663.7296752929688 425.27001953125 C 665.2430419921875 425.27001953125 666.6430053710938 425.5267028808594 667.9296875 426.0400390625 C 669.2096557617188 426.54669189453125 670.3163452148438 427.280029296875 671.2496948242188 428.2400207519531 C 672.1830444335938 429.193359375 672.9130249023438 430.376708984375 673.439697265625 431.7900390625 C 673.9663696289062 433.1966857910156 674.2296752929688 434.8000183105469 674.2296752929688 436.60003662109375 C 674.2296752929688 437.3000183105469 674.1530151367188 437.7666931152344 673.9996948242188 438.0000305175781 C 673.85302734375 438.2333679199219 673.5697021484375 438.35003662109375 673.149658203125 438.35003662109375 L 656.2996826171875 438.35003662109375 C 656.3330078125 439.9500427246094 656.5496826171875 441.3433532714844 656.94970703125 442.530029296875 C 657.3496704101562 443.71002197265625 657.899658203125 444.6966857910156 658.5996704101562 445.4900207519531 C 659.2996826171875 446.2767028808594 660.1329956054688 446.86669921875 661.0996704101562 447.2600402832031 C 662.0663452148438 447.6533508300781 663.149658203125 447.85003662109375 664.3496704101562 447.85003662109375 C 665.4696655273438 447.85003662109375 666.4330444335938 447.72003173828125 667.2396850585938 447.46002197265625 C 668.0463256835938 447.2000427246094 668.7430419921875 446.9200439453125 669.3297119140625 446.6200256347656 C 669.90966796875 446.3200378417969 670.3963623046875 446.0433654785156 670.7896728515625 445.7900390625 C 671.1830444335938 445.530029296875 671.5196533203125 445.4000244140625 671.7996826171875 445.4000244140625 C 672.1663208007812 445.4000244140625 672.44970703125 445.5400390625 672.649658203125 445.8200378417969 L 673.899658203125 447.4500427246094 C 673.35302734375 448.11669921875 672.6963500976562 448.6966857910156 671.9296875 449.1900329589844 C 671.1630249023438 449.683349609375 670.3396606445312 450.0867004394531 669.4596557617188 450.4000244140625 C 668.5863647460938 450.71337890625 667.6830444335938 450.9500427246094 666.7496948242188 451.1100158691406 C 665.8163452148438 451.27001953125 664.8930053710938 451.35003662109375 663.9796752929688 451.35003662109375 C 662.226318359375 451.35003662109375 660.613037109375 451.0533752441406 659.1397094726562 450.46002197265625 C 657.6663208007812 449.86669921875 656.3897094726562 449.0000305175781 655.3096923828125 447.8600158691406 C 654.236328125 446.72003173828125 653.399658203125 445.30670166015625 652.7996826171875 443.6200256347656 C 652.19970703125 441.9400329589844 651.899658203125 440.0066833496094 651.899658203125 437.8200378417969 C 651.899658203125 436.0533752441406 652.169677734375 434.4033508300781 652.7096557617188 432.8700256347656 C 653.25634765625 431.3367004394531 654.036376953125 430.0100402832031 655.0496826171875 428.8900146484375 C 656.0697021484375 427.76336669921875 657.3096923828125 426.8800354003906 658.7696533203125 426.2400207519531 C 660.2430419921875 425.5933532714844 661.8963623046875 425.27001953125 663.7296752929688 425.27001953125 M 663.8297119140625 428.5500183105469 C 661.6763305664062 428.5500183105469 659.9830322265625 429.1700439453125 658.7496948242188 430.4100341796875 C 657.516357421875 431.6500244140625 656.7496948242188 433.3700256347656 656.44970703125 435.5700378417969 L 670.2296752929688 435.5700378417969 C 670.2296752929688 434.53668212890625 670.0863647460938 433.5933532714844 669.7996826171875 432.7400207519531 C 669.5196533203125 431.8800354003906 669.10302734375 431.1366882324219 668.5496826171875 430.5100402832031 C 668.0029907226562 429.88336181640625 667.3330078125 429.4000244140625 666.5396728515625 429.0600280761719 C 665.746337890625 428.72003173828125 664.843017578125 428.5500183105469 663.8297119140625 428.5500183105469 ZM 697.7335815429688 451.0000305175781 C 697.1002807617188 451.0000305175781 696.7002563476562 450.6900329589844 696.5336303710938 450.0700378417969 L 696.1336059570312 447.0000305175781 C 695.0469360351562 448.3200378417969 693.8069458007812 449.37335205078125 692.41357421875 450.1600341796875 C 691.0269165039062 450.953369140625 689.43359375 451.35003662109375 687.6336059570312 451.35003662109375 C 686.1802978515625 451.35003662109375 684.8635864257812 451.0700378417969 683.68359375 450.5100402832031 C 682.4969482421875 449.9500427246094 681.4869384765625 449.1300354003906 680.6536254882812 448.0500183105469 C 679.8202514648438 446.96337890625 679.1802978515625 445.6133728027344 678.7335815429688 444.0000305175781 C 678.2802734375 442.3800354003906 678.0535888671875 440.52001953125 678.0535888671875 438.4200439453125 C 678.0535888671875 436.5533752441406 678.3035888671875 434.81671142578125 678.8035888671875 433.21002197265625 C 679.3035888671875 431.6033630371094 680.0236206054688 430.2066955566406 680.963623046875 429.02001953125 C 681.9102783203125 427.84002685546875 683.0569458007812 426.9133605957031 684.4036254882812 426.2400207519531 C 685.7569580078125 425.5600280761719 687.290283203125 425.22003173828125 689.0036010742188 425.22003173828125 C 690.5569458007812 425.22003173828125 691.8836059570312 425.4833679199219 692.9835815429688 426.0100402832031 C 694.0836181640625 426.53668212890625 695.0669555664062 427.27337646484375 695.93359375 428.22003173828125 L 695.93359375 414.1700439453125 L 700.3836059570312 414.1700439453125 L 700.3836059570312 451.0000305175781 L 697.7335815429688 451.0000305175781 M 689.1035766601562 447.7500305175781 C 690.5569458007812 447.7500305175781 691.826904296875 447.41668701171875 692.91357421875 446.7500305175781 C 694.0069580078125 446.0833740234375 695.0136108398438 445.1400451660156 695.93359375 443.9200439453125 L 695.93359375 431.6700439453125 C 695.1135864257812 430.5700378417969 694.2169189453125 429.8000183105469 693.2435913085938 429.36004638671875 C 692.270263671875 428.9200439453125 691.1902465820312 428.7000427246094 690.0036010742188 428.7000427246094 C 687.636962890625 428.7000427246094 685.8202514648438 429.5400390625 684.5535888671875 431.22003173828125 C 683.2869262695312 432.9067077636719 682.6536254882812 435.30670166015625 682.6536254882812 438.4200439453125 C 682.6536254882812 440.0733642578125 682.7969360351562 441.4866943359375 683.0836181640625 442.6600341796875 C 683.3635864257812 443.8333740234375 683.7802734375 444.8000183105469 684.3336181640625 445.5600280761719 C 684.8802490234375 446.3200378417969 685.5535888671875 446.87335205078125 686.3535766601562 447.22003173828125 C 687.1536254882812 447.5733642578125 688.0702514648438 447.7500305175781 689.1035766601562 447.7500305175781 ZM 738.0198364257812 451.0000305175781 L 734.2698364257812 451.0000305175781 C 733.8364868164062 451.0000305175781 733.4865112304688 450.8900451660156 733.2198486328125 450.6700439453125 C 732.953125 450.4566955566406 732.753173828125 450.183349609375 732.6198120117188 449.85003662109375 L 729.2698364257812 441.2000427246094 L 713.1898193359375 441.2000427246094 L 709.83984375 449.85003662109375 C 709.7265014648438 450.1500244140625 709.5264892578125 450.41668701171875 709.2398071289062 450.6500244140625 C 708.9598388671875 450.88336181640625 708.6098022460938 451.0000305175781 708.1898193359375 451.0000305175781 L 704.4398193359375 451.0000305175781 L 718.7698364257812 415.1700439453125 L 723.6898193359375 415.1700439453125 L 738.0198364257812 451.0000305175781 M 714.539794921875 437.7000427246094 L 727.9197998046875 437.7000427246094 L 722.289794921875 423.1200256347656 C 721.9231567382812 422.22003173828125 721.5664672851562 421.0967102050781 721.2198486328125 419.7500305175781 C 721.0331420898438 420.4300231933594 720.8531494140625 421.0600280761719 720.6798095703125 421.6400146484375 C 720.5064697265625 422.21337890625 720.3364868164062 422.7167053222656 720.1697998046875 423.1500244140625 L 714.539794921875 437.7000427246094 ZM 741.8483276367188 459.58001708984375 L 741.8483276367188 425.6700439453125 L 744.498291015625 425.6700439453125 C 745.1316528320312 425.6700439453125 745.5316162109375 425.98004150390625 745.6983032226562 426.60003662109375 L 746.0783081054688 429.60003662109375 C 747.1583251953125 428.280029296875 748.3949584960938 427.22003173828125 749.788330078125 426.4200439453125 C 751.181640625 425.6200256347656 752.7849731445312 425.22003173828125 754.5983276367188 425.22003173828125 C 756.0449829101562 425.22003173828125 757.3616333007812 425.5000305175781 758.5482788085938 426.0600280761719 C 759.7349853515625 426.6200256347656 760.7449951171875 427.4466857910156 761.5783081054688 428.5400390625 C 762.41162109375 429.626708984375 763.0516357421875 430.98004150390625 763.498291015625 432.60003662109375 C 763.95166015625 434.21337890625 764.1782836914062 436.0700378417969 764.1782836914062 438.1700439453125 C 764.1782836914062 440.03668212890625 763.9282836914062 441.7767028808594 763.4282836914062 443.3900451660156 C 762.9282836914062 444.9967041015625 762.2116088867188 446.3866882324219 761.2783203125 447.5600280761719 C 760.344970703125 448.7333679199219 759.1983032226562 449.6600341796875 757.8383178710938 450.34002685546875 C 756.4783325195312 451.01336669921875 754.9483032226562 451.35003662109375 753.248291015625 451.35003662109375 C 751.681640625 451.35003662109375 750.344970703125 451.09002685546875 749.23828125 450.5700378417969 C 748.1316528320312 450.05670166015625 747.151611328125 449.3233642578125 746.2982788085938 448.3700256347656 L 746.2982788085938 459.58001708984375 L 741.8483276367188 459.58001708984375 M 753.1282958984375 428.8200378417969 C 751.6749877929688 428.8200378417969 750.401611328125 429.1533508300781 749.3082885742188 429.8200378417969 C 748.2149658203125 430.4866943359375 747.2116088867188 431.4300231933594 746.2982788085938 432.6500244140625 L 746.2982788085938 444.9000244140625 C 747.1182861328125 446.0000305175781 748.0149536132812 446.77337646484375 748.98828125 447.22003173828125 C 749.9616088867188 447.6733703613281 751.0482788085938 447.9000244140625 752.248291015625 447.9000244140625 C 754.594970703125 447.9000244140625 756.4049682617188 447.05670166015625 757.6782836914062 445.3700256347656 C 758.9449462890625 443.6900329589844 759.5783081054688 441.2900390625 759.5783081054688 438.1700439453125 C 759.5783081054688 436.52337646484375 759.431640625 435.1100158691406 759.1383056640625 433.9300231933594 C 758.844970703125 432.7433776855469 758.4249877929688 431.77001953125 757.8782958984375 431.0100402832031 C 757.324951171875 430.2500305175781 756.6483154296875 429.6966857910156 755.8483276367188 429.35003662109375 C 755.0482788085938 428.9967041015625 754.1416625976562 428.8200378417969 753.1282958984375 428.8200378417969 ZM 769.4381103515625 459.58001708984375 L 769.4381103515625 425.6700439453125 L 772.0880737304688 425.6700439453125 C 772.721435546875 425.6700439453125 773.1213989257812 425.98004150390625 773.2880859375 426.60003662109375 L 773.6680908203125 429.60003662109375 C 774.7481079101562 428.280029296875 775.9847412109375 427.22003173828125 777.3781127929688 426.4200439453125 C 778.7714233398438 425.6200256347656 780.374755859375 425.22003173828125 782.1881103515625 425.22003173828125 C 783.634765625 425.22003173828125 784.951416015625 425.5000305175781 786.1380615234375 426.0600280761719 C 787.3247680664062 426.6200256347656 788.3347778320312 427.4466857910156 789.1680908203125 428.5400390625 C 790.0014038085938 429.626708984375 790.6414184570312 430.98004150390625 791.0880737304688 432.60003662109375 C 791.5414428710938 434.21337890625 791.76806640625 436.0700378417969 791.76806640625 438.1700439453125 C 791.76806640625 440.03668212890625 791.51806640625 441.7767028808594 791.01806640625 443.3900451660156 C 790.51806640625 444.9967041015625 789.8013916015625 446.3866882324219 788.8681030273438 447.5600280761719 C 787.9347534179688 448.7333679199219 786.7880859375 449.6600341796875 785.4281005859375 450.34002685546875 C 784.068115234375 451.01336669921875 782.5380859375 451.35003662109375 780.8380737304688 451.35003662109375 C 779.2714233398438 451.35003662109375 777.9347534179688 451.09002685546875 776.8280639648438 450.5700378417969 C 775.721435546875 450.05670166015625 774.7413940429688 449.3233642578125 773.8880615234375 448.3700256347656 L 773.8880615234375 459.58001708984375 L 769.4381103515625 459.58001708984375 M 780.7180786132812 428.8200378417969 C 779.2647705078125 428.8200378417969 777.9913940429688 429.1533508300781 776.8980712890625 429.8200378417969 C 775.8047485351562 430.4866943359375 774.8013916015625 431.4300231933594 773.8880615234375 432.6500244140625 L 773.8880615234375 444.9000244140625 C 774.7080688476562 446.0000305175781 775.604736328125 446.77337646484375 776.5780639648438 447.22003173828125 C 777.5513916015625 447.6733703613281 778.6380615234375 447.9000244140625 779.8380737304688 447.9000244140625 C 782.1847534179688 447.9000244140625 783.9947509765625 447.05670166015625 785.26806640625 445.3700256347656 C 786.5347290039062 443.6900329589844 787.1680908203125 441.2900390625 787.1680908203125 438.1700439453125 C 787.1680908203125 436.52337646484375 787.0214233398438 435.1100158691406 786.7280883789062 433.9300231933594 C 786.4347534179688 432.7433776855469 786.0147705078125 431.77001953125 785.4680786132812 431.0100402832031 C 784.9147338867188 430.2500305175781 784.2380981445312 429.6966857910156 783.4381103515625 429.35003662109375 C 782.6380615234375 428.9967041015625 781.7314453125 428.8200378417969 780.7180786132812 428.8200378417969 Z" transform="matrix(1, 0, 0, 1, -601.0297241210938, -444.93707275390625)" style="fill: rgb(255, 255, 255); white-space: pre; color: rgb(51, 51, 51);"/></svg>